<svg width="32" height="24" viewBox="0 0 32 24" fill="none" xmlns="http://www.w3.org/2000/svg">
<path d="M27.5652 2.66148C24.7962 0.400519 20.4158 0.0172582 20.2283 0.00347127C19.9375 -0.021344 19.6603 0.144093 19.5408 0.417063C19.5299 0.433606 19.4348 0.656945 19.3288 1.00436C21.1603 1.31869 23.4103 1.95011 25.4457 3.23224C25.7717 3.43627 25.8723 3.87192 25.6712 4.2028C25.538 4.42062 25.3125 4.53918 25.0788 4.53918C24.9538 4.53918 24.8261 4.50334 24.712 4.43165C21.212 2.22859 16.8424 2.1183 16 2.1183C15.1576 2.1183 10.7853 2.22859 7.28804 4.43165C6.96196 4.63844 6.53261 4.53643 6.33152 4.20555C6.12772 3.87192 6.22826 3.43903 6.55435 3.23224C8.58967 1.95286 10.8397 1.31869 12.6712 1.00712C12.5652 0.656945 12.4701 0.436364 12.462 0.417063C12.3397 0.144093 12.0652 -0.0268582 11.7717 0.00347127C11.5842 0.0172582 7.2038 0.400519 4.39674 2.69181C2.93207 4.06769 0 12.1079 0 19.059C0 19.183 0.0326087 19.3016 0.0923916 19.4091C2.11413 23.0157 7.63315 23.9586 8.8913 24C8.89674 24 8.90489 24 8.91304 24C9.13587 24 9.34511 23.8925 9.47554 23.7105L10.7473 21.9348C7.31522 21.0359 5.5625 19.5084 5.46196 19.4174C5.17391 19.161 5.14674 18.7143 5.40217 18.422C5.65489 18.1298 6.09511 18.1022 6.38315 18.3586C6.42391 18.3972 9.65217 21.1766 16 21.1766C22.3587 21.1766 25.587 18.3862 25.6196 18.3586C25.9076 18.105 26.3451 18.1298 26.6005 18.4248C26.8533 18.7171 26.8261 19.161 26.538 19.4174C26.4375 19.5084 24.6848 21.0359 21.2527 21.9348L22.5245 23.7105C22.6549 23.8925 22.8641 24 23.087 24C23.0951 24 23.1033 24 23.1087 24C24.3668 23.9586 29.8859 23.0157 31.9076 19.4091C31.9674 19.3016 32 19.183 32 19.059C32 12.1079 29.0679 4.06769 27.5652 2.66148ZM11.4783 16.2355C10.1332 16.2355 9.04348 14.9727 9.04348 13.4121C9.04348 11.8515 10.1332 10.5886 11.4783 10.5886C12.8234 10.5886 13.913 11.8515 13.913 13.4121C13.913 14.9727 12.8234 16.2355 11.4783 16.2355ZM20.5217 16.2355C19.1766 16.2355 18.087 14.9727 18.087 13.4121C18.087 11.8515 19.1766 10.5886 20.5217 10.5886C21.8668 10.5886 22.9565 11.8515 22.9565 13.4121C22.9565 14.9727 21.8668 16.2355 20.5217 16.2355Z" fill="#393A3D"/>
</svg>
