<svg width="25" height="24" viewBox="0 0 25 24" fill="none" xmlns="http://www.w3.org/2000/svg">
<path d="M12.2003 0C5.57352 0 0.200302 5.5125 0.200302 12.3054C0.200302 17.7429 3.63959 22.35 8.40744 23.9786C8.47432 23.9931 8.54258 24.0003 8.61102 24C9.05566 24 9.22709 23.6732 9.22709 23.3893C9.22709 23.0946 9.21637 22.3232 9.21102 21.2946C8.81407 21.3877 8.408 21.4362 8.0003 21.4393C5.69137 21.4393 5.16637 19.6446 5.16637 19.6446C4.61995 18.225 3.83245 17.8446 3.83245 17.8446C2.7878 17.1107 3.82709 17.0893 3.90744 17.0893H3.9128C5.11816 17.1964 5.7503 18.3643 5.7503 18.3643C6.3503 19.4143 7.15387 19.7089 7.87173 19.7089C8.34639 19.6994 8.81371 19.5899 9.24316 19.3875C9.3503 18.5946 9.66102 18.0536 10.0039 17.7429C7.34137 17.4321 4.53959 16.3768 4.53959 11.6625C4.53959 10.3179 5.00566 9.21964 5.77173 8.3625C5.64852 8.05178 5.23602 6.79821 5.88959 5.10536C5.97726 5.08438 6.06736 5.07537 6.15744 5.07857C6.59137 5.07857 7.57173 5.24464 9.18959 6.36964C11.1554 5.81963 13.2345 5.81963 15.2003 6.36964C16.8182 5.24464 17.7985 5.07857 18.2324 5.07857C18.3225 5.07537 18.4126 5.08438 18.5003 5.10536C19.1539 6.79821 18.7414 8.05178 18.6182 8.3625C19.3842 9.225 19.8503 10.3232 19.8503 11.6625C19.8503 16.3875 17.0432 17.4268 14.3699 17.7321C14.7985 18.1125 15.1842 18.8625 15.1842 20.0089C15.1842 21.6536 15.1682 22.9821 15.1682 23.3839C15.1682 23.6732 15.3342 24 15.7789 24C15.8509 24.0003 15.9227 23.9931 15.9932 23.9786C20.7664 22.35 24.2003 17.7375 24.2003 12.3054C24.2003 5.5125 18.8271 0 12.2003 0Z" fill="#393A3D"/>
</svg>
