<svg width="25" height="24" viewBox="0 0 25 24" fill="none" xmlns="http://www.w3.org/2000/svg">
<path d="M17.6547 1.99982C18.9796 2.00378 20.2492 2.53187 21.1861 3.46876C22.123 4.40566 22.6511 5.67522 22.655 7.00018V16.9998C22.6511 18.3248 22.123 19.5943 21.1861 20.5312C20.2492 21.4681 18.9796 21.9962 17.6547 22.0002H7.65502C6.33006 21.9962 5.0605 21.4681 4.12361 20.5312C3.18672 19.5943 2.65862 18.3248 2.65467 16.9998V7.00018C2.65862 5.67522 3.18672 4.40566 4.12361 3.46876C5.0605 2.53187 6.33006 2.00378 7.65502 1.99982H17.6547ZM17.6547 0H7.65502C3.80485 0 0.654846 3.15 0.654846 7.00018V16.9998C0.654846 20.85 3.80485 24 7.65502 24H17.6547C21.5048 24 24.6548 20.85 24.6548 16.9998V7.00018C24.6548 3.15 21.5048 0 17.6547 0Z" fill="#393A3D"/>
<path d="M19.1547 7.00016C18.858 7.00016 18.568 6.91219 18.3213 6.74737C18.0746 6.58255 17.8824 6.34828 17.7688 6.07419C17.6553 5.8001 17.6256 5.4985 17.6835 5.20753C17.7414 4.91656 17.8842 4.64928 18.094 4.4395C18.3038 4.22973 18.5711 4.08686 18.862 4.02899C19.153 3.97111 19.4546 4.00081 19.7287 4.11435C20.0028 4.22788 20.237 4.42014 20.4019 4.66681C20.5667 4.91348 20.6547 5.20349 20.6547 5.50016C20.6551 5.69727 20.6166 5.89251 20.5413 6.07469C20.4661 6.25687 20.3556 6.4224 20.2163 6.56177C20.0769 6.70114 19.9114 6.81161 19.7292 6.88685C19.547 6.96208 19.3518 7.00059 19.1547 7.00016ZM12.6548 7.99981C13.446 7.99981 14.2194 8.23441 14.8772 8.67396C15.535 9.1135 16.0478 9.73825 16.3505 10.4692C16.6533 11.2001 16.7325 12.0044 16.5782 12.7804C16.4238 13.5563 16.0428 14.2691 15.4834 14.8285C14.924 15.388 14.2112 15.769 13.4352 15.9233C12.6593 16.0776 11.855 15.9984 11.124 15.6957C10.3931 15.3929 9.76836 14.8802 9.32882 14.2224C8.88928 13.5645 8.65467 12.7911 8.65467 12C8.6558 10.9394 9.07761 9.92262 9.82755 9.17269C10.5775 8.42275 11.5943 8.00094 12.6548 7.99981ZM12.6548 5.99999C11.4682 5.99999 10.3081 6.35188 9.32143 7.01117C8.33473 7.67046 7.5657 8.60753 7.11157 9.70388C6.65745 10.8002 6.53863 12.0066 6.77014 13.1705C7.00165 14.3344 7.57309 15.4035 8.41221 16.2426C9.25132 17.0817 10.3204 17.6532 11.4843 17.8847C12.6482 18.1162 13.8546 17.9974 14.9509 17.5433C16.0473 17.0891 16.9844 16.3201 17.6437 15.3334C18.3029 14.3467 18.6548 13.1867 18.6548 12C18.6548 10.4087 18.0227 8.88256 16.8975 7.75735C15.7723 6.63213 14.2461 5.99999 12.6548 5.99999Z" fill="#393A3D"/>
</svg>
