<svg width="32" height="24" viewBox="0 0 32 24" fill="none" xmlns="http://www.w3.org/2000/svg">
<path d="M27.3821 0H4.47303C3.46072 0.00108288 2.49018 0.403702 1.77436 1.11952C1.05855 1.83533 0.655929 2.80587 0.654846 3.81818V20.1818C0.655929 21.1941 1.05855 22.1647 1.77436 22.8805C2.49018 23.5963 3.46072 23.9989 4.47303 24H27.3821C28.3944 23.9989 29.365 23.5963 30.0808 22.8805C30.7966 22.1647 31.1992 21.1941 31.2003 20.1818V3.81818C31.1992 2.80587 30.7966 1.83533 30.0808 1.11952C29.365 0.403702 28.3944 0.00108288 27.3821 0ZM26.4153 6.31568L16.5971 13.952C16.4057 14.1009 16.1701 14.1817 15.9276 14.1817C15.6851 14.1817 15.4495 14.1009 15.258 13.952L5.43985 6.31568C5.32449 6.22857 5.2276 6.1194 5.1548 5.99452C5.082 5.86963 5.03475 5.73153 5.01579 5.58822C4.99683 5.44492 5.00653 5.29928 5.04435 5.15976C5.08216 5.02024 5.14732 4.88963 5.23605 4.77551C5.32478 4.66139 5.4353 4.56605 5.5612 4.49501C5.68709 4.42398 5.82585 4.37868 5.9694 4.36173C6.11296 4.34479 6.25845 4.35655 6.39742 4.39632C6.5364 4.43609 6.66608 4.50308 6.77894 4.59341L15.9276 11.7089L25.0762 4.59341C25.305 4.42065 25.5925 4.34488 25.8767 4.38249C26.1609 4.42009 26.4189 4.56805 26.5949 4.79436C26.7708 5.02067 26.8506 5.30715 26.817 5.59184C26.7834 5.87653 26.6391 6.13656 26.4153 6.31568Z" fill="#393A3D"/>
</svg>
