<svg width="31" height="24" viewBox="0 0 31 24" fill="none" xmlns="http://www.w3.org/2000/svg">
<path d="M30.2002 2.84375C29.0749 3.33272 27.8842 3.65486 26.6658 3.8C27.9463 3.05024 28.9092 1.85911 29.374 0.450009C28.1634 1.15788 26.8412 1.65455 25.464 1.91875C24.884 1.31096 24.1866 0.827448 23.4139 0.4976C22.6413 0.167751 21.8097 -0.00154208 20.9696 1.0584e-05C17.5684 1.0584e-05 14.8159 2.7125 14.8159 6.05624C14.8135 6.52134 14.8668 6.98506 14.9746 7.43749C12.5357 7.32315 10.1475 6.70098 7.96277 5.61078C5.77806 4.52058 3.84497 2.98635 2.28717 1.10626C1.74066 2.02758 1.45163 3.07878 1.4503 4.15C1.4503 6.24999 2.54592 8.10624 4.20029 9.19373C3.22012 9.17047 2.26004 8.91105 1.40155 8.43748V8.51248C1.40155 11.45 3.52654 13.8937 6.33903 14.45C5.81015 14.591 5.26514 14.6624 4.71779 14.6625C4.3294 14.6631 3.9419 14.6255 3.56092 14.55C4.34279 16.9562 6.61841 18.7062 9.31402 18.7562C7.12364 20.4443 4.43442 21.3567 1.66905 21.3499C1.17819 21.3492 0.687779 21.32 0.200302 21.2624C3.01353 23.0588 6.28369 24.009 9.62152 23.9999C20.9565 23.9999 27.149 14.7687 27.149 6.76249C27.149 6.49999 27.1421 6.23749 27.1296 5.98124C28.3315 5.12628 29.3713 4.06382 30.2002 2.84375Z" fill="#393A3D"/>
</svg>
